<svg width="1349" height="1200" viewBox="0 0 1349 1200" fill="none" xmlns="http://www.w3.org/2000/svg">
<path opacity="0.7" d="M327.715 1199.99H951.268C994.141 1199.99 1033.76 1177.12 1055.2 1139.99L1193.76 899.98H501.023L327.715 1199.99Z" fill="white" style="fill:white;fill-opacity:1;"/>
<path opacity="0.4" d="M847.567 300.008H154.541L293.109 60.0015C314.545 22.8723 354.163 0 397.036 0H1020.59L847.567 300.008Z" fill="white" style="fill:white;fill-opacity:1;"/>
<path opacity="0.4" d="M1332.45 660.008C1353.89 622.88 1353.89 577.134 1332.45 540.003L1193.88 299.996L1020.67 600.005H327.848L501.038 900.014H1193.78L1193.83 899.923L1193.88 900.014L1332.45 660.008Z" fill="white" style="fill:white;fill-opacity:1;"/>
<path d="M500.96 899.99L327.751 599.984L154.541 899.99L327.751 1200L500.96 899.99Z" fill="white" style="fill:white;fill-opacity:1;"/>
<path opacity="0.7" d="M847.566 299.996H154.563L16.0642 540.006C-5.36099 577.134 -5.35432 622.873 16.0818 659.994L154.68 900.014L327.89 600.005H1020.69L1020.74 599.931L847.566 299.996Z" fill="white" style="fill:white;fill-opacity:1;"/>
<path d="M1193.92 300.008L1020.71 0L847.502 300.008L1020.71 600.017L1193.92 300.008Z" fill="white" style="fill:white;fill-opacity:1;"/>
</svg>
